<svg xmlns="http://www.w3.org/2000/svg" aria-hidden="true" style="position:absolute;width:0;height:0;overflow:hidden">
  <defs>
    <symbol id="icon-close" viewBox="0 0 32 32">
      <path fill="none" stroke="#0a224a" stroke-linecap="round" stroke-linejoin="round" stroke-width="2" d="M24 8 8 24M8 8l16 16" style="stroke:var(--color1, #0a224a)"/>
    </symbol>
    <symbol id="icon-youtube" viewBox="0 0 32 32">
      <path fill="#fff" d="m20.9 15.1-6.46-4.31a1.1 1.1 0 0 0-1.1-.05 1.08 1.08 0 0 0-.57.95v8.62a1.07 1.07 0 0 0 .56.96 1.13 1.13 0 0 0 1.1-.05l6.47-4.32a1.09 1.09 0 0 0 .49-.9 1.08 1.08 0 0 0-.5-.9zm-5.98 3.2v-4.6l3.45 2.3-3.45 2.3zM30.31 8.16a3.17 3.17 0 0 0-1.95-2.19C23.76 4.2 16.4 4.21 16 4.21S8.25 4.19 3.64 5.97a3.17 3.17 0 0 0-1.95 2.2C1.34 9.5.92 11.94.92 16s.42 6.5.77 7.83a3.17 3.17 0 0 0 1.95 2.2c4.42 1.7 11.34 1.76 12.26 1.76h.2c.92 0 7.84-.05 12.26-1.76a3.17 3.17 0 0 0 1.95-2.2c.35-1.33.77-3.78.77-7.83s-.42-6.5-.77-7.83zM28.22 23.3a1.05 1.05 0 0 1-.63.72c-4.27 1.65-11.51 1.62-11.59 1.62h-.01c-.07 0-7.31.02-11.58-1.62a1.05 1.05 0 0 1-.63-.72c-.33-1.23-.7-3.48-.7-7.3s.37-6.07.7-7.3a1.05 1.05 0 0 1 .63-.72c4.1-1.58 11-1.62 11.56-1.62H16c.08 0 7.32-.02 11.59 1.62.16.06.3.16.4.28s.2.28.23.44c.33 1.23.7 3.48.7 7.3s-.37 6.07-.7 7.3z" style="fill:var(--color2, #fff)"/>
    </symbol>
    <symbol id="icon-insta" viewBox="0 0 32 32">
      <path fill="#fff" d="M16 8.36a7.64 7.64 0 1 0 0 15.28 7.64 7.64 0 0 0 0-15.28zm0 12.73a5.1 5.1 0 1 1 0-10.18 5.1 5.1 0 0 1 0 10.18zm7-21H9A8.91 8.91 0 0 0 .1 9v14A8.91 8.91 0 0 0 9 31.9h14a8.91 8.91 0 0 0 8.9-8.9V9A8.91 8.91 0 0 0 23 .1zM29.36 23A6.38 6.38 0 0 1 23 29.36H9A6.38 6.38 0 0 1 2.64 23V9A6.36 6.36 0 0 1 9 2.64h14A6.38 6.38 0 0 1 29.37 9v14zM26.18 7.73a1.9 1.9 0 1 1-3.82 0 1.9 1.9 0 0 1 3.82 0z" style="fill:var(--color2, #fff)"/>
    </symbol>
    <symbol id="icon-face" viewBox="0 0 32 32">
      <path fill="#fff" d="M31.17 16A15.16 15.16 0 1 0 .85 16a15.16 15.16 0 0 0 30.32 0zm-14 12.77V19.5h3.5a1.17 1.17 0 0 0 0-2.33h-3.5v-3.5a2.34 2.34 0 0 1 2.33-2.34h2.33a1.17 1.17 0 0 0 0-2.33H19.5a4.68 4.68 0 0 0-4.67 4.67v3.5h-3.5a1.17 1.17 0 0 0 0 2.33h3.5v9.28a12.83 12.83 0 1 1 2.34 0z" style="fill:var(--color2, #fff)"/>
    </symbol>
    <symbol id="icon-gamburger" viewBox="0 0 32 32">
      <path fill="none" stroke="#0a224a" stroke-linecap="round" stroke-linejoin="round" stroke-width="2.4" d="M28 13.33H4M28 8H4M28 18.67H4M28 24H4" style="stroke:var(--color1, #0a224a)"/>
    </symbol>
    <symbol id="icon-error" viewBox="0 0 32 32">
      <path d="M14.67 20h2.66v2.67h-2.66V20zm0-10.67h2.66v8h-2.66v-8zm1.32-6.66A13.33 13.33 0 1 0 16 29.32a13.33 13.33 0 0 0-.01-26.65zm.01 24a10.66 10.66 0 1 1 0-21.33 10.66 10.66 0 0 1 0 21.33z"/>
    </symbol>
    <symbol id="icon-ok" viewBox="0 0 32 32">
      <path fill="none" stroke="#fff" stroke-linecap="round" stroke-linejoin="round" stroke-width="3.69" d="M26.67 8 12 22.67 5.33 16" style="stroke:var(--color2, #fff)"/>
    </symbol>
    <symbol id="icon-logo" viewBox="0 0 200 32">
      <path fill="#0a224a" style="fill: var(--color1, #0a224a)" d="M0 28v-28h4.988l12.324 9.086h0.186l12.324-9.086h4.988v28h-5.956v-20.168l-8.454 5.952v14.216h-5.954v-14.216l-8.49-5.952v20.168h-5.956zM40.402 28v-28h5.958v28h-5.96zM51.936 28v-28h6.032l18.84 20.128v-20.128h5.956v28h-6.032l-18.84-20.168v20.168h-5.956zM88.34 28v-28h5.956v28h-5.956zM99.874 28v-28h4.99l12.322 9.086h0.186l12.324-9.086h4.99v28h-5.958v-20.168l-8.452 5.952v14.216h-5.956v-14.216l-8.488-5.952v20.168h-5.958zM138.044 28l11.988-28h9.196l11.988 28h-6.48l-2.53-5.914h-15.152l-2.534 5.914h-6.48zM149.212 16.996h10.834l-5.174-12.1h-0.484l-5.176 12.1zM174.572 28v-28h5.956v22.908h19.472v5.092h-25.428z"></path>
    </symbol>
    <symbol id="icon-burger" viewBox="0 0 32 32">
      <path fill="#" stroke="#0a224a" style="stroke: var(--color1, #0a224a)" stroke-linejoin="round" stroke-linecap="round" stroke-miterlimit="4" stroke-width="2" d="M28 13.333h-24M28 8h-24M28 18.667h-24M28 24h-24"></path>
    </symbol>
    <symbol id="icon-x-close" viewBox="0 0 32 32">
      <path fill="black" stroke="#0a224a" style="stroke: var(--color1, #0a224a)" stroke-linejoin="round" stroke-linecap="round" stroke-miterlimit="4" stroke-width="2" d="M24 8l-16 16M8 8l16 16"></path>
    </symbol>
  </defs>
</svg>
